<?xml version="1.0" encoding="UTF-8" standalone="no"?>
<!-- Created with Inkscape (http://www.inkscape.org/) -->

<svg
   xmlns:dc="http://purl.org/dc/elements/1.1/"
   xmlns:cc="http://creativecommons.org/ns#"
   xmlns:rdf="http://www.w3.org/1999/02/22-rdf-syntax-ns#"
   xmlns:svg="http://www.w3.org/2000/svg"
   xmlns="http://www.w3.org/2000/svg"
   xmlns:sodipodi="http://sodipodi.sourceforge.net/DTD/sodipodi-0.dtd"
   xmlns:inkscape="http://www.inkscape.org/namespaces/inkscape"
   width="598.57141"
   height="626.98492"
   id="svg2"
   version="1.1"
   inkscape:version="0.48.0 r9654"
   sodipodi:docname="task_icon2.svg"
   inkscape:export-filename="/Users/user/dev/task_icon2.png"
   inkscape:export-xdpi="38.469826"
   inkscape:export-ydpi="38.469826">
  <defs
     id="defs4" />
  <sodipodi:namedview
     id="base"
     pagecolor="#ffffff"
     bordercolor="#666666"
     borderopacity="1.0"
     inkscape:pageopacity="0.0"
     inkscape:pageshadow="2"
     inkscape:zoom="0.25"
     inkscape:cx="305.69071"
     inkscape:cy="411.78893"
     inkscape:document-units="px"
     inkscape:current-layer="layer1"
     showgrid="false"
     fit-margin-top="0"
     fit-margin-left="0"
     fit-margin-right="0"
     fit-margin-bottom="0"
     inkscape:window-width="1280"
     inkscape:window-height="686"
     inkscape:window-x="0"
     inkscape:window-y="0"
     inkscape:window-maximized="0" />
  <metadata
     id="metadata7">
    <rdf:RDF>
      <cc:Work
         rdf:about="">
        <dc:format>image/svg+xml</dc:format>
        <dc:type
           rdf:resource="http://purl.org/dc/dcmitype/StillImage" />
        <dc:title></dc:title>
      </cc:Work>
    </rdf:RDF>
  </metadata>
  <g
     inkscape:label="Layer 1"
     inkscape:groupmode="layer"
     id="layer1"
     transform="translate(-85,-97.36218)">
    <g
       id="g4005"
       style="fill:#00a100;fill-opacity:1">
      <path
         sodipodi:nodetypes="ccccc"
         inkscape:connector-curvature="0"
         id="rect2985"
         d="m 100,112.36218 568.57141,0 0,451.42859 C 395.5052,756.74121 393.29649,758.98736 100,563.79077 z"
         style="fill:#00a100;fill-opacity:1;stroke:#000000;stroke-width:30;stroke-miterlimit:4;stroke-opacity:1" />
    </g>
    <path
       inkscape:connector-curvature="0"
       id="path3959"
       d="m 339.01588,577.35124 c -5.12772,-2.12787 -9.88378,-7.09581 -10.56903,-11.03981 -0.68524,-3.94402 0.21368,-6.42833 1.9978,-5.52071 1.78407,0.90762 3.48465,-0.66581 3.77911,-3.49655 0.29461,-2.83072 3.33145,-15.32872 6.74893,-27.77333 7.45466,-27.14589 4.98168,-46.13559 -7.55501,-58.01347 -8.50283,-8.05602 -9.11435,-8.16987 -15.61034,-2.90662 -7.5499,6.11718 -8.689,27.98267 -3.31288,63.59288 2.7312,18.09076 2.28529,20.49258 -4.7759,25.72467 -11.48959,8.51341 -41.01375,5.52637 -61.3992,-6.21194 -20.9705,-12.07519 -34.24063,-33.4341 -47.91924,-77.12844 -12.18476,-38.92234 -17.79102,-94.47788 -12.34714,-122.35457 l 2.92198,-14.96262 5.09005,19.95375 c 9.872,38.69956 36.3004,60.71979 82.1062,68.41114 18.04442,3.02988 26.15087,6.45416 39.80398,16.81375 13.12789,9.9611 20.10457,13.00902 29.77758,13.00902 16.1513,0 29.83726,-8.90987 37.31433,-24.29251 5.01543,-10.31827 9.57571,-13.57417 30.55788,-21.81728 19.38441,-7.61543 26.96038,-12.67147 35.39859,-23.62437 23.06085,-29.93313 22.90728,-62.26664 -0.48253,-101.5897 -10.7081,-18.00249 -12.23633,-19.23886 -21.67183,-17.53293 -7.6253,1.37861 -13.48328,-0.29471 -23.54128,-6.7251 -7.36449,-4.70826 -18.79967,-11.01519 -25.41156,-14.01543 -11.13818,-5.05417 -11.87411,-6.35979 -10.01519,-17.76836 5.36128,-32.90327 37.6722,-42.75312 68.10127,-20.76039 15.3184,11.07145 19.72056,25.53915 11.67012,38.35414 -5.58075,8.88366 -5.50828,9.0043 13.84133,23.04739 11.24585,8.16176 24.87882,22.358 32.31715,33.65242 l 12.86565,19.53541 0,58.8888 0,58.8888 11.18774,-6.96285 c 40.54555,-25.23411 60.81312,-90.52479 39.95424,-128.7102 -11.08586,-20.29449 -27.4856,-36.60236 -48.12577,-47.85634 -20.99992,-11.45015 -15.34772,-12.37247 10.28825,-1.67888 24.96676,10.41445 47.07699,29.65989 59.96468,52.19514 16.1299,28.20456 19.58203,49.1568 14.64913,88.91096 -7.78638,62.75074 -11.08725,75.99259 -24.62214,98.77576 -14.65382,24.66656 -29.29773,36.6215 -48.48889,39.58516 -17.07262,2.63648 -38.88857,-0.91164 -41.61902,-6.76887 -1.19884,-2.57167 0.60932,-15.124 4.01812,-27.8941 3.40879,-12.7701 5.50971,-23.7848 4.66869,-24.47706 -0.84099,-0.69231 -6.92104,9.5188 -13.51122,22.69129 -6.59018,13.17249 -16.767,30.16637 -22.61514,37.76415 -13.55473,17.61 -39.65776,38.60679 -53.20735,42.79902 -14.32762,4.43295 -50.83123,4.0157 -62.22214,-0.71122 z m -0.93232,-133.22839 c -8.06017,-1.73386 -8.13747,-3.13568 -0.51873,-9.40718 5.52376,-4.547 5.46637,-5.27084 -0.71277,-8.99018 -3.6961,-2.22475 -8.91671,-4.045 -11.60133,-4.045 -6.51861,0 -6.18522,-4.49693 0.68123,-9.18788 6.04257,-4.1281 41.02722,-5.67101 45.47979,-2.00578 1.50729,1.24075 -2.07954,5.41969 -7.97075,9.28651 -10.66841,7.00248 -10.65062,14.18638 0.0335,14.18638 8.5323,0 6.24858,4.82603 -4.12481,8.71667 -9.8793,3.70535 -10.55374,3.75124 -21.26772,1.44646 z m -76.63605,-53.75442 c -12.23612,-10.07241 3.55058,-44.28544 23.03736,-49.92673 9.06102,-2.62313 11.5644,-2.03692 17.62886,4.12803 9.09955,9.25035 8.9204,12.09188 -2.04974,32.511 -8.44466,15.71834 -10.04175,16.97147 -21.62965,16.97147 -6.88143,0 -14.52554,-1.65769 -16.98683,-3.68377 z m 32.81738,-36.22375 c 0,-1.6884 -1.67816,-3.06981 -3.72925,-3.06981 -2.05108,0 -3.72924,1.38141 -3.72924,3.06981 0,1.68839 1.67816,3.0698 3.72924,3.0698 2.05109,0 3.72925,-1.38141 3.72925,-3.0698 z m 83.3247,16.1456 c -14.11193,-12.6823 -18.14739,-21.61407 -14.77006,-32.69096 2.81979,-9.24826 10.68888,-11.80409 23.77668,-7.72253 23.3464,7.28088 38.13216,28.20366 30.93815,43.77948 -5.88469,12.74087 -23.69192,11.24032 -39.94477,-3.36599 z m 6.17728,-22.28522 c 0,-1.68839 -1.67816,-3.06981 -3.72926,-3.06981 -2.05108,0 -3.72925,1.38142 -3.72925,3.06981 0,1.6884 1.67817,3.06981 3.72925,3.06981 2.0511,0 3.72926,-1.38141 3.72926,-3.06981 z M 198.42052,276.63199 c -20.48055,-18.50966 -20.14275,-35.90824 0.99388,-51.18481 19.17874,-13.86154 39.18325,-13.32074 56.18539,1.51897 17.55375,15.3212 17.11429,26.48561 -1.42432,36.18246 -7.69158,4.02317 -17.18154,10.25686 -21.08882,13.85264 -9.26264,8.52416 -25.01133,8.35639 -34.66613,-0.36926 z"
       style="fill:#000000" />
  </g>
</svg>
